<svg width="66" height="66" viewBox="0 0 66 66" fill="none" xmlns="http://www.w3.org/2000/svg">
<path d="M24.7748 29.5625C18.3288 29.5625 13.0873 24.3183 13.0873 17.875C13.0873 11.4318 18.3288 6.1875 24.7748 6.1875C31.2208 6.1875 36.4623 11.4318 36.4623 17.875C36.4623 24.3183 31.2208 29.5625 24.7748 29.5625ZM24.7748 10.3125C20.6031 10.3125 17.2123 13.7032 17.2123 17.875C17.2123 22.0468 20.6031 25.4375 24.7748 25.4375C28.9466 25.4375 32.3373 22.0468 32.3373 17.875C32.3373 13.7032 28.9438 10.3125 24.7748 10.3125ZM35.7416 59.8125H13.7584C7.10339 59.8125 3.4375 56.1689 3.4375 49.5524C3.4375 42.2346 7.579 33.6875 19.25 33.6875H30.25C41.921 33.6875 46.0625 42.2319 46.0625 49.5524C46.0625 56.1689 42.3966 59.8125 35.7416 59.8125ZM19.25 37.8125C8.40675 37.8125 7.5625 46.7969 7.5625 49.5524C7.5625 53.8534 9.41614 55.6875 13.7584 55.6875H35.7416C40.0839 55.6875 41.9375 53.8534 41.9375 49.5524C41.9375 46.7996 41.0933 37.8125 30.25 37.8125H19.25ZM45.5402 30.7723C43.0404 30.7723 40.6918 29.8208 38.929 28.0938C38.115 27.2963 38.0986 25.9903 38.8961 25.1763C39.6964 24.3623 41.0024 24.3514 41.8136 25.1461C42.8009 26.1141 44.1267 26.6473 45.5402 26.6473C48.5789 26.6473 50.9603 24.2687 50.9603 21.2299C50.9603 18.2434 48.5294 15.8125 45.5402 15.8125C44.6932 15.8125 43.9286 15.9858 43.2658 16.3268C42.2566 16.8493 41.0108 16.4479 40.4883 15.4359C39.9658 14.4239 40.3672 13.1808 41.3792 12.6583C42.6332 12.0148 44.0332 11.6875 45.5402 11.6875C50.8037 11.6875 55.0853 15.9692 55.0853 21.2299C55.0825 26.4907 50.8037 30.7723 45.5402 30.7723ZM54.0651 54.3125H52.1949C51.0564 54.3125 50.1324 53.3885 50.1324 52.25C50.1324 51.1115 51.0564 50.1875 52.1949 50.1875H54.0651C57.2138 50.1875 58.4375 48.9776 58.4375 45.8701C58.4375 43.8379 57.8132 37.2076 49.8025 37.2076H45.6472C44.5087 37.2076 43.5847 36.2836 43.5847 35.1451C43.5847 34.0066 44.5087 33.0826 45.6472 33.0826H49.8025C59.2212 33.0826 62.5625 39.9714 62.5625 45.8701C62.5625 51.2354 59.4661 54.3125 54.0651 54.3125Z" fill="white"/>
</svg>
